<svg xmlns="http://www.w3.org/2000/svg" xmlns:xlink="http://www.w3.org/1999/xlink" width="24" height="24" viewBox="0 0 24 24"><defs><style>.a{fill:none;}.b{opacity:0.5;clip-path:url(#a);}</style><clipPath id="a"><rect class="a" width="24" height="24"/></clipPath></defs><g class="b"><path d="M24-39a11.827,11.827,0,0,0-11,7.5A11.827,11.827,0,0,0,24-24a11.827,11.827,0,0,0,11-7.5A11.827,11.827,0,0,0,24-39Zm0,12.5a5,5,0,0,1-5-5,5,5,0,0,1,5-5,5,5,0,0,1,5,5A5,5,0,0,1,24-26.5Zm0-8a3,3,0,0,0-3,3,3,3,0,0,0,3,3,3,3,0,0,0,3-3A3,3,0,0,0,24-34.5Z" transform="translate(-12 44)"/><rect class="a" width="24" height="24"/></g></svg>